<?xml version="1.0" encoding="UTF-8" standalone="no"?>
<svg
   id="svg8"
   version="1.1"
   viewBox="0 0 132.29131 132.29131"
   height="132.29131mm"
   width="132.29131mm"
   xmlns="http://www.w3.org/2000/svg"
   xmlns:svg="http://www.w3.org/2000/svg"
   xmlns:rdf="http://www.w3.org/1999/02/22-rdf-syntax-ns#"
   xmlns:cc="http://creativecommons.org/ns#"
   xmlns:dc="http://purl.org/dc/elements/1.1/">
  <defs
     id="defs2">
    <clipPath
       clipPathUnits="userSpaceOnUse"
       id="clipPath22">
      <path
         d="M 0,792 H 612 V 0 H 0 Z"
         id="path20" />
    </clipPath>
    <clipPath
       clipPathUnits="userSpaceOnUse"
       id="clipPath22-3">
      <path
         d="M 0,792 H 612 V 0 H 0 Z"
         id="path20-6" />
    </clipPath>
  </defs>
  <metadata
     id="metadata5">
    <rdf:RDF>
      <cc:Work
         rdf:about="">
        <dc:format>image/svg+xml</dc:format>
        <dc:type
           rdf:resource="http://purl.org/dc/dcmitype/StillImage" />
      </cc:Work>
    </rdf:RDF>
  </metadata>
  <g
     id="g10"
     transform="matrix(0.40964209,0,0,-0.40964209,153.24638,212.03254)">
    <g
       style="fill:#343a40;fill-opacity:1"
       transform="translate(-587.28815,-13.423714)"
       id="g4569">
      <g
         style="fill:#343a40;fill-opacity:1"
         transform="translate(594.00001,50.338984)"
         clip-path="url(#clipPath22-3)"
         id="g4567" />
    </g>
  </g>
  <style
     type="text/css"
     id="style835">
	.st0{fill:#003660;}
	.st1{fill:#FFFFFF;}
	.st2{fill:#E2231A;}
</style>
  <g
     id="g4060">
    <g
       transform="translate(229.94162,-31.793171)"
       id="g943">
      <g
         id="g948">
        <rect
           ry="10.307399"
           y="31.866171"
           x="-229.86862"
           height="132.14531"
           width="132.145"
           id="rect938"
           style="fill:#e2231a;fill-opacity:1;stroke:#e2231a;stroke-width:0.146;stroke-miterlimit:4;stroke-dasharray:none;stroke-opacity:1" />
      </g>
    </g>
    <g
       id="g4064">
      <path
         class="st2"
         d="m 38.234535,69.928371 c -1.835983,4.859954 -1.619985,10.151904 -0.215998,14.687861 2.915972,9.287912 12.743879,13.499872 21.059801,14.255865 9.827907,0.971991 19.655814,-2.591975 25.811756,-9.287912 4.751955,-5.183951 7.019934,-12.419883 6.37194,-19.655814 h -6.479939 c -0.647994,0 -1.07999,0.755993 -0.647994,1.295987 l 1.295988,1.727984 c 0.215998,0.323997 0.215998,0.647994 0,0.971991 -0.755993,1.07999 -2.15998,2.807973 -3.347968,4.103961 -6.263941,6.37194 -15.119858,9.287912 -23.975774,8.747918 -6.479939,-0.539995 -12.203885,-2.375978 -15.659852,-8.423921 -0.971991,-1.619985 -1.295988,-3.887963 -1.403987,-4.535957 0,-0.215998 0,-0.539995 0.215998,-0.647994 l 1.403987,-1.727984 C 43.202488,70.792363 42.878491,70.03637 41.9065,70.03637 h -3.671965 z"
         id="path917"
         style="fill:#e6e6e6;fill-opacity:1;stroke-width:1.07999" />
      <path
         class="st2"
         d="m 71.498221,16.144879 c 0,-5.615947 7.451929,-3.779965 3.563966,8.315921 0,0 -3.563966,-3.887963 -3.563966,-8.315921 m -4.535958,35.315666 c 6.911935,-6.37194 9.395912,-16.091848 9.395912,-16.091848 0,0 9.935906,10.475901 13.499872,15.659852 4.643956,6.695937 7.235932,11.771889 8.423921,15.87585 3.671962,11.555891 1.511985,24.731767 -6.803936,33.803681 -8.207923,9.07191 -21.059801,13.17588 -33.047688,11.98789 C 46.442457,111.50798 34.346571,105.35204 30.566607,93.25615 28.082631,85.048228 29.16262,76.084313 32.834586,68.416385 41.690502,49.84056 62.858302,36.340688 65.126281,34.612704 c 0.755993,-0.539995 0.755993,-0.971991 0.539995,-1.295988 -0.215998,-0.215998 -0.539995,-0.323997 -1.295988,0 -0.323997,0.215998 -1.943982,1.187989 -2.267979,1.295988 -4.751955,3.023972 -6.587937,4.319959 -10.151904,6.911935 -5.615947,4.103961 -10.799898,8.531919 -15.551853,13.607871 -2.807973,3.131971 -5.615947,6.803936 -8.099923,11.015896 -5.831945,10.151904 -7.883926,22.355789 -3.887964,33.479684 5.29195,14.90386 20.303809,23.11178 35.531665,24.19177 14.903859,0.97199 30.239714,-4.85995 39.959622,-16.30784 C 110.05386,95.41613 112.53783,78.676288 107.24588,63.880428 105.4099,59.020474 102.92592,54.484517 100.22595,50.488554 94.502003,42.172633 85.646087,34.612704 78.95015,27.916767 79.814142,23.164812 80.894132,19.060851 80.570135,15.928881 80.246138,12.364914 78.086158,8.2609531 73.6582,8.3689521 69.44624,8.58495 67.610257,12.256915 67.394259,15.820882 c -0.431996,7.451929 5.831945,15.767851 5.831945,15.767851 0,0 -1.943981,8.207922 -7.559928,16.631843 -3.563967,5.29195 -0.215998,4.751955 1.295987,3.239969"
         id="path919"
         style="fill:#e6e6e6;fill-opacity:1;stroke-width:1.07999" />
    </g>
  </g>
</svg>
